<?xml version="1.0" encoding="UTF-8"?>
<svg id="Layer_2" data-name="Layer 2" xmlns="http://www.w3.org/2000/svg" xmlns:xlink="http://www.w3.org/1999/xlink" viewBox="0 0 578.06 575.75">
  <defs>
    <style>
      .cls-1 {
        letter-spacing: -.02em;
      }

      .cls-2 {
        letter-spacing: 0em;
      }

      .cls-3 {
        font-family: Platypi-ExtraBold, Platypi;
        font-weight: 700;
      }

      .cls-3, .cls-4 {
        fill: #fff;
      }

      .cls-5 {
        font-size: 102.44px;
      }

      .cls-6 {
        letter-spacing: 0em;
      }

      .cls-7 {
        letter-spacing: 0em;
      }

      .cls-8 {
        font-size: 91.2px;
      }

      .cls-9 {
        fill: url(#radial-gradient-2);
      }

      .cls-9, .cls-10, .cls-11, .cls-12, .cls-13 {
        stroke-width: 0px;
      }

      .cls-10 {
        fill: url(#radial-gradient-5);
      }

      .cls-14 {
        letter-spacing: -.03em;
      }

      .cls-11 {
        fill: url(#radial-gradient);
      }

      .cls-15 {
        letter-spacing: 0em;
      }

      .cls-16 {
        letter-spacing: -.03em;
      }

      .cls-12 {
        fill: url(#radial-gradient-3);
      }

      .cls-4 {
        font-family: FelixTitlingMT, 'Felix Titling';
        font-size: 43.48px;
      }

      .cls-13 {
        fill: url(#radial-gradient-4);
      }
    </style>
    <radialGradient id="radial-gradient" cx="237.79" cy="13.59" fx="237.79" fy="13.59" r="251.5" gradientUnits="userSpaceOnUse">
      <stop offset="0" stop-color="#ffd034"/>
      <stop offset=".99" stop-color="#ffa30f"/>
    </radialGradient>
    <radialGradient id="radial-gradient-2" cx="237.14" cy="49.11" fx="237.14" fy="49.11" r="190.56" gradientUnits="userSpaceOnUse">
      <stop offset="0" stop-color="#ffab09"/>
      <stop offset=".99" stop-color="#ff811d"/>
    </radialGradient>
    <radialGradient id="radial-gradient-3" cx="237.79" cy="13.59" fx="237.79" fy="13.59" r="251.5" xlink:href="#radial-gradient"/>
    <radialGradient id="radial-gradient-4" cx="289.17" cy="33.45" fx="289.17" fy="33.45" r="202.32" gradientTransform="translate(-25.89 11.8) rotate(2.58)" xlink:href="#radial-gradient-2"/>
    <radialGradient id="radial-gradient-5" cx="334.84" cy="36.16" fx="334.84" fy="36.16" r="166.71" gradientTransform="translate(-54.86 23.55) rotate(5.45)" gradientUnits="userSpaceOnUse">
      <stop offset="0" stop-color="#ff7909"/>
      <stop offset=".99" stop-color="#ff391d"/>
    </radialGradient>
  </defs>
  <g id="Layer_1-2" data-name="Layer 1">
    <text class="cls-4" transform="translate(151.4 376.32)"><tspan x="0" y="0">MINISTERIO</tspan></text>
    <text class="cls-3" transform="translate(0 462.73)"><tspan class="cls-5"><tspan class="cls-16" x="0" y="0">C</tspan><tspan x="68.63" y="0">O</tspan><tspan class="cls-1" x="154.58" y="0">L</tspan><tspan x="215.53" y="0">UM</tspan><tspan class="cls-14" x="396.23" y="0">N</tspan><tspan x="471.52" y="0">A </tspan></tspan><tspan class="cls-8"><tspan x="45.49" y="81.83">DE </tspan><tspan class="cls-2" x="201.16" y="81.83">F</tspan><tspan class="cls-15" x="257.7" y="81.83">U</tspan><tspan class="cls-7" x="326.01" y="81.83">E</tspan><tspan class="cls-6" x="383.82" y="81.83">GO</tspan></tspan></text>
    <g>
      <path class="cls-11" d="M240.74,39.47s-56.55,51.06-10.03,105.36c46.52,54.3,73.19,107.06,30.28,176.64,0,0,20.87-61.46-34.21-118.86-41.11-42.84-76.45-114.06,13.96-163.14Z"/>
      <path class="cls-9" d="M271.49,281.69c-1.98-23.61-11.22-54.21-39.7-83.9-17.4-18.13-45.73-54.08-39.97-91.11,2.14-13.78,8.97-26.49,20.38-38.02-9.33,21.48-12.49,50.69,13.21,80.69,26.69,31.16,41.25,55.75,47.21,79.74,4.31,17.37,3.96,34.78-1.13,52.59Z"/>
      <path class="cls-12" d="M318.74,0s-91.38,13.59-82.69,104.04c8.7,90.45,119.1,111.3,33.46,223.51,0,0,121.35-30.43,109.18-127.84-12.18-97.41-123.37-115.89-59.95-199.71Z"/>
      <path class="cls-13" d="M287.54,313.18c37.9-53.91,17.86-85.1-3.26-117.95-12.72-19.78-25.87-40.24-27.27-67.7-2.68-52.66,34.33-71.49,55.93-77.98-23.28,37.38-4.02,62.75,16.25,89.45,15.8,20.82,33.71,44.42,36.41,78.41,2.62,32.91-12.35,59.79-44.48,79.88-11.9,7.44-24.1,12.56-33.58,15.88Z"/>
      <path class="cls-10" d="M298.18,305.76c21.88-41.66,5.42-73.57-9.4-102.31-10.63-20.6-20.66-40.05-19.57-64.74,1.29-29.11,14.9-45.26,30.97-54.15-9.17,29.53,6.4,54.69,20.49,77.46,13.64,22.04,27.73,44.82,27.24,75.86-.46,29.22-15.54,50.85-46.1,66.13-1.19.6-2.4,1.18-3.63,1.75Z"/>
    </g>
  </g>
</svg>