<?xml version="1.0" encoding="UTF-8"?>
<svg id="Layer_2" data-name="Layer 2" xmlns="http://www.w3.org/2000/svg" xmlns:xlink="http://www.w3.org/1999/xlink" viewBox="0 0 785.73 327.55">
  <defs>
    <style>
      .cls-1 {
        letter-spacing: -.02em;
      }

      .cls-2 {
        letter-spacing: 0em;
      }

      .cls-3 {
        font-size: 102.44px;
      }

      .cls-4 {
        letter-spacing: 0em;
      }

      .cls-5 {
        letter-spacing: 0em;
      }

      .cls-6 {
        font-size: 91.2px;
      }

      .cls-7 {
        fill: url(#radial-gradient-2);
      }

      .cls-7, .cls-8, .cls-9, .cls-10, .cls-11 {
        stroke-width: 0px;
      }

      .cls-8 {
        fill: url(#radial-gradient-5);
      }

      .cls-12 {
        letter-spacing: -.03em;
      }

      .cls-9 {
        fill: url(#radial-gradient);
      }

      .cls-13 {
        letter-spacing: 0em;
      }

      .cls-14 {
        font-family: FelixTitlingMT, 'Felix Titling';
        font-size: 43.48px;
      }

      .cls-14, .cls-15 {
        fill: #000;
      }

      .cls-16 {
        letter-spacing: -.03em;
      }

      .cls-10 {
        fill: url(#radial-gradient-3);
      }

      .cls-15 {
        font-family: Platypi-ExtraBold, Platypi;
        font-weight: 700;
      }

      .cls-11 {
        fill: url(#radial-gradient-4);
      }
    </style>
    <radialGradient id="radial-gradient" cx="53.67" cy="13.59" fx="53.67" fy="13.59" r="251.5" gradientUnits="userSpaceOnUse">
      <stop offset="0" stop-color="#ffd034"/>
      <stop offset=".99" stop-color="#ffa30f"/>
    </radialGradient>
    <radialGradient id="radial-gradient-2" cx="53.02" cy="49.11" fx="53.02" fy="49.11" r="190.56" gradientUnits="userSpaceOnUse">
      <stop offset="0" stop-color="#ffab09"/>
      <stop offset=".99" stop-color="#ff811d"/>
    </radialGradient>
    <radialGradient id="radial-gradient-3" cx="53.67" cy="13.59" fx="53.67" fy="13.59" r="251.5" xlink:href="#radial-gradient"/>
    <radialGradient id="radial-gradient-4" cx="4.32" cy="96.17" fx="4.32" fy="96.17" r="202.32" gradientTransform="translate(77.38 -38.05) rotate(2.58)" xlink:href="#radial-gradient-2"/>
    <radialGradient id="radial-gradient-5" cx="-58.73" cy="173.97" fx="-58.73" fy="173.97" r="166.71" gradientTransform="translate(165.91 -76.25) rotate(5.45)" gradientUnits="userSpaceOnUse">
      <stop offset="0" stop-color="#ff7909"/>
      <stop offset=".99" stop-color="#ff391d"/>
    </radialGradient>
  </defs>
  <g id="Layer_1-2" data-name="Layer 1">
    <g>
      <g>
        <path class="cls-9" d="M56.62,39.47S.06,90.53,46.58,144.84c46.52,54.3,73.19,107.06,30.28,176.64,0,0,20.87-61.46-34.21-118.86C1.55,159.78-33.79,88.55,56.62,39.47Z"/>
        <path class="cls-7" d="M87.38,281.69c-1.98-23.61-11.22-54.21-39.7-83.9C30.28,179.67,1.94,143.71,7.71,106.69c2.14-13.78,8.97-26.49,20.38-38.02-9.33,21.48-12.49,50.69,13.21,80.69,26.69,31.16,41.25,55.75,47.21,79.74,4.31,17.37,3.96,34.78-1.13,52.59Z"/>
        <path class="cls-10" d="M134.62,0S43.24,13.59,51.93,104.04c8.7,90.45,119.1,111.3,33.46,223.51,0,0,121.35-30.43,109.18-127.84C182.39,102.3,71.2,83.82,134.62,0Z"/>
        <path class="cls-11" d="M103.42,313.18c37.9-53.91,17.86-85.1-3.26-117.95-12.72-19.78-25.87-40.24-27.27-67.7-2.68-52.66,34.33-71.49,55.93-77.98-23.28,37.38-4.02,62.75,16.25,89.45,15.8,20.82,33.71,44.42,36.41,78.41,2.62,32.91-12.35,59.79-44.48,79.88-11.9,7.44-24.1,12.56-33.58,15.88Z"/>
        <path class="cls-8" d="M114.06,305.76c21.88-41.66,5.42-73.57-9.4-102.31-10.63-20.6-20.66-40.05-19.57-64.74,1.29-29.11,14.9-45.26,30.97-54.15-9.17,29.53,6.4,54.69,20.49,77.46,13.64,22.04,27.73,44.82,27.24,75.86-.46,29.22-15.54,50.85-46.1,66.13-1.19.6-2.4,1.18-3.63,1.75Z"/>
      </g>
      <text class="cls-14" transform="translate(359.07 104.24)"><tspan x="0" y="0">MINISTERIO</tspan></text>
      <text class="cls-15" transform="translate(207.67 190.65)"><tspan class="cls-3"><tspan class="cls-16" x="0" y="0">C</tspan><tspan x="68.63" y="0">O</tspan><tspan class="cls-1" x="154.58" y="0">L</tspan><tspan x="215.53" y="0">UM</tspan><tspan class="cls-12" x="396.23" y="0">N</tspan><tspan x="471.52" y="0">A </tspan></tspan><tspan class="cls-6"><tspan x="45.49" y="81.83">DE </tspan><tspan class="cls-2" x="201.16" y="81.83">F</tspan><tspan class="cls-13" x="257.7" y="81.83">U</tspan><tspan class="cls-5" x="326.01" y="81.83">E</tspan><tspan class="cls-4" x="383.82" y="81.83">GO</tspan></tspan></text>
    </g>
  </g>
</svg>